<svg width="512" height="512" viewBox="0 0 24 24" xmlns="http://www.w3.org/2000/svg">
  <defs>
    <linearGradient id="gradient" x1="0%" y1="0%" x2="100%" y2="100%">
      <stop offset="0%" style="stop-color:#3B82F6"/>
      <stop offset="100%" style="stop-color:#1D4ED8"/>
    </linearGradient>
  </defs>
  <g fill="none" stroke="url(#gradient)" stroke-width="1.5">
    <path d="M12 3a9 9 0 0 1 9 9 9 9 0 0 1-9 9 9 9 0 0 1-9-9 9 9 0 0 1 9-9z" stroke-opacity="0.3"/>
    <path d="M12 7a5 5 0 0 1 5 5 5 5 0 0 1-5 5 5 5 0 0 1-5-5 5 5 0 0 1 5-5" stroke-opacity="0.6"/>
    <circle cx="12" cy="12" r="2" stroke-opacity="0.9"/>
    <path d="M12 2v20M2 12h20" stroke-opacity="0.4"/>
    <path d="M3.5 7.5l17 0M3.5 16.5l17 0" stroke-opacity="0.2" stroke-dasharray="2 2"/>
  </g>
  <circle cx="12" cy="12" r="1.5" fill="url(#gradient)"/>
</svg>